<mxfile host="app.diagrams.net" agent="Mozilla/5.0 (Macintosh; Intel Mac OS X 10_15_7) AppleWebKit/537.36 (KHTML, like Gecko) Chrome/131.0.0.0 Safari/537.36" version="24.8.6">
  <diagram name="第 1 页" id="TsuZlVNlwBFfq6maTT24">
    <mxGraphModel dx="1260" dy="587" grid="1" gridSize="10" guides="1" tooltips="1" connect="1" arrows="1" fold="1" page="1" pageScale="1" pageWidth="3200" pageHeight="2400" math="0" shadow="0">
      <root>
        <mxCell id="0" />
        <mxCell id="1" parent="0" />
        <mxCell id="fMhGvrMlXt7Lq60lGn1u-2" value="服务B1" style="rounded=1;whiteSpace=wrap;html=1;sketch=1;curveFitting=1;jiggle=2;labelBackgroundColor=none;fillColor=#F2CC8F;strokeColor=#E07A5F;fontColor=#393C56;" vertex="1" parent="1">
          <mxGeometry x="680" y="1040" width="120" height="40" as="geometry" />
        </mxCell>
        <mxCell id="fMhGvrMlXt7Lq60lGn1u-5" value="服务B2" style="rounded=1;whiteSpace=wrap;html=1;sketch=1;curveFitting=1;jiggle=2;labelBackgroundColor=none;fillColor=#F2CC8F;strokeColor=#E07A5F;fontColor=#393C56;" vertex="1" parent="1">
          <mxGeometry x="680" y="1120" width="120" height="40" as="geometry" />
        </mxCell>
        <mxCell id="fMhGvrMlXt7Lq60lGn1u-6" value="服务B3" style="rounded=1;whiteSpace=wrap;html=1;sketch=1;curveFitting=1;jiggle=2;labelBackgroundColor=none;fillColor=#F2CC8F;strokeColor=#E07A5F;fontColor=#393C56;" vertex="1" parent="1">
          <mxGeometry x="680" y="1200" width="120" height="40" as="geometry" />
        </mxCell>
        <mxCell id="fMhGvrMlXt7Lq60lGn1u-7" value="服务B4" style="rounded=1;whiteSpace=wrap;html=1;sketch=1;curveFitting=1;jiggle=2;labelBackgroundColor=none;fillColor=#F2CC8F;strokeColor=#E07A5F;fontColor=#393C56;" vertex="1" parent="1">
          <mxGeometry x="680" y="1280" width="120" height="40" as="geometry" />
        </mxCell>
        <mxCell id="fMhGvrMlXt7Lq60lGn1u-13" style="edgeStyle=none;rounded=0;sketch=1;hachureGap=4;jiggle=2;curveFitting=1;orthogonalLoop=1;jettySize=auto;html=1;exitX=1;exitY=0.5;exitDx=0;exitDy=0;entryX=0;entryY=0.5;entryDx=0;entryDy=0;strokeColor=#E07A5F;fontFamily=Architects Daughter;fontSource=https%3A%2F%2Ffonts.googleapis.com%2Fcss%3Ffamily%3DArchitects%2BDaughter;fontColor=#393C56;fillColor=#F2CC8F;" edge="1" parent="1" source="fMhGvrMlXt7Lq60lGn1u-10" target="fMhGvrMlXt7Lq60lGn1u-2">
          <mxGeometry relative="1" as="geometry" />
        </mxCell>
        <mxCell id="fMhGvrMlXt7Lq60lGn1u-14" style="edgeStyle=none;rounded=0;sketch=1;hachureGap=4;jiggle=2;curveFitting=1;orthogonalLoop=1;jettySize=auto;html=1;exitX=1;exitY=0.5;exitDx=0;exitDy=0;entryX=0;entryY=0.5;entryDx=0;entryDy=0;strokeColor=#E07A5F;fontFamily=Architects Daughter;fontSource=https%3A%2F%2Ffonts.googleapis.com%2Fcss%3Ffamily%3DArchitects%2BDaughter;fontColor=#393C56;fillColor=#F2CC8F;" edge="1" parent="1" source="fMhGvrMlXt7Lq60lGn1u-10" target="fMhGvrMlXt7Lq60lGn1u-5">
          <mxGeometry relative="1" as="geometry" />
        </mxCell>
        <mxCell id="fMhGvrMlXt7Lq60lGn1u-15" style="edgeStyle=none;rounded=0;sketch=1;hachureGap=4;jiggle=2;curveFitting=1;orthogonalLoop=1;jettySize=auto;html=1;exitX=1;exitY=0.5;exitDx=0;exitDy=0;entryX=0;entryY=0.5;entryDx=0;entryDy=0;strokeColor=#E07A5F;fontFamily=Architects Daughter;fontSource=https%3A%2F%2Ffonts.googleapis.com%2Fcss%3Ffamily%3DArchitects%2BDaughter;fontColor=#393C56;fillColor=#F2CC8F;" edge="1" parent="1" source="fMhGvrMlXt7Lq60lGn1u-10" target="fMhGvrMlXt7Lq60lGn1u-6">
          <mxGeometry relative="1" as="geometry" />
        </mxCell>
        <mxCell id="fMhGvrMlXt7Lq60lGn1u-16" style="edgeStyle=none;rounded=0;sketch=1;hachureGap=4;jiggle=2;curveFitting=1;orthogonalLoop=1;jettySize=auto;html=1;exitX=1;exitY=0.5;exitDx=0;exitDy=0;entryX=0;entryY=0.5;entryDx=0;entryDy=0;strokeColor=#E07A5F;fontFamily=Architects Daughter;fontSource=https%3A%2F%2Ffonts.googleapis.com%2Fcss%3Ffamily%3DArchitects%2BDaughter;fontColor=#393C56;fillColor=#F2CC8F;" edge="1" parent="1" source="fMhGvrMlXt7Lq60lGn1u-10" target="fMhGvrMlXt7Lq60lGn1u-7">
          <mxGeometry relative="1" as="geometry" />
        </mxCell>
        <mxCell id="fMhGvrMlXt7Lq60lGn1u-10" value="服务A1" style="rounded=1;whiteSpace=wrap;html=1;sketch=1;curveFitting=1;jiggle=2;labelBackgroundColor=none;fillColor=#F2CC8F;strokeColor=#E07A5F;fontColor=#393C56;" vertex="1" parent="1">
          <mxGeometry x="400" y="1160" width="120" height="40" as="geometry" />
        </mxCell>
        <mxCell id="fMhGvrMlXt7Lq60lGn1u-17" value="服务C1" style="rounded=1;whiteSpace=wrap;html=1;sketch=1;curveFitting=1;jiggle=2;labelBackgroundColor=none;fillColor=#F2CC8F;strokeColor=#E07A5F;fontColor=#393C56;" vertex="1" parent="1">
          <mxGeometry x="920" y="1080" width="120" height="40" as="geometry" />
        </mxCell>
        <mxCell id="fMhGvrMlXt7Lq60lGn1u-18" value="服务C2" style="rounded=1;whiteSpace=wrap;html=1;sketch=1;curveFitting=1;jiggle=2;labelBackgroundColor=none;fillColor=#F2CC8F;strokeColor=#E07A5F;fontColor=#393C56;" vertex="1" parent="1">
          <mxGeometry x="920" y="1160" width="120" height="40" as="geometry" />
        </mxCell>
      </root>
    </mxGraphModel>
  </diagram>
</mxfile>
